<svg xmlns="http://www.w3.org/2000/svg" xmlns:xlink="http://www.w3.org/1999/xlink" width="500" zoomAndPan="magnify" viewBox="0 0 375 374.999991" height="500" preserveAspectRatio="xMidYMid meet" version="1.0"><defs><g/><clipPath id="46b828edc9"><path d="M 37.5 100.046875 L 212.25 100.046875 L 212.25 274.796875 L 37.5 274.796875 Z M 37.5 100.046875 " clip-rule="nonzero"/></clipPath></defs><g clip-path="url(#46b828edc9)"><path fill="#ffffff" d="M 127.089844 146.84375 C 127.222656 148.0625 127.40625 149.273438 127.640625 150.476562 C 127.878906 151.683594 128.164062 152.875 128.5 154.054688 C 128.835938 155.234375 129.222656 156.398438 129.660156 157.546875 C 130.09375 158.695312 130.578125 159.820312 131.105469 160.929688 C 131.636719 162.035156 132.214844 163.117188 132.835938 164.175781 C 133.457031 165.234375 134.125 166.261719 134.832031 167.265625 C 135.542969 168.265625 136.292969 169.234375 137.085938 170.171875 C 137.875 171.113281 138.707031 172.015625 139.574219 172.882812 C 140.441406 173.75 141.34375 174.578125 142.28125 175.371094 C 143.21875 176.164062 144.191406 176.914062 145.191406 177.621094 C 146.191406 178.332031 147.222656 178.996094 148.28125 179.621094 C 149.339844 180.242188 150.421875 180.816406 151.527344 181.347656 C 152.632812 181.878906 153.761719 182.363281 154.910156 182.796875 C 156.054688 183.230469 157.21875 183.617188 158.398438 183.953125 C 159.578125 184.292969 160.773438 184.578125 161.976562 184.8125 C 163.179688 185.050781 164.394531 185.234375 165.613281 185.367188 C 177.4375 186.664062 192.703125 187.5 212.410156 187.5 C 192.703125 187.5 177.4375 188.335938 165.613281 189.632812 C 164.394531 189.765625 163.179688 189.953125 161.976562 190.1875 C 160.773438 190.421875 159.578125 190.710938 158.398438 191.046875 C 157.21875 191.382812 156.054688 191.769531 154.910156 192.203125 C 153.761719 192.636719 152.632812 193.121094 151.527344 193.652344 C 150.421875 194.183594 149.339844 194.757812 148.28125 195.382812 C 147.222656 196.003906 146.191406 196.667969 145.191406 197.378906 C 144.191406 198.085938 143.21875 198.839844 142.28125 199.628906 C 141.34375 200.421875 140.441406 201.25 139.574219 202.117188 C 138.707031 202.984375 137.875 203.890625 137.085938 204.828125 C 136.292969 205.765625 135.542969 206.734375 134.832031 207.734375 C 134.125 208.738281 133.457031 209.765625 132.835938 210.824219 C 132.214844 211.882812 131.636719 212.964844 131.105469 214.070312 C 130.578125 215.179688 130.09375 216.304688 129.660156 217.453125 C 129.222656 218.601562 128.835938 219.765625 128.5 220.945312 C 128.164062 222.125 127.878906 223.316406 127.640625 224.523438 C 127.40625 225.726562 127.222656 226.9375 127.089844 228.160156 C 125.792969 239.984375 124.957031 255.25 124.957031 274.957031 C 124.957031 255.25 124.117188 239.984375 122.820312 228.160156 C 122.6875 226.9375 122.503906 225.726562 122.269531 224.523438 C 122.03125 223.316406 121.746094 222.125 121.410156 220.945312 C 121.074219 219.765625 120.6875 218.601562 120.253906 217.453125 C 119.816406 216.304688 119.335938 215.179688 118.804688 214.070312 C 118.273438 212.964844 117.695312 211.882812 117.074219 210.824219 C 116.453125 209.765625 115.785156 208.738281 115.078125 207.734375 C 114.367188 206.734375 113.617188 205.765625 112.824219 204.828125 C 112.035156 203.890625 111.203125 202.984375 110.335938 202.117188 C 109.46875 201.25 108.566406 200.421875 107.628906 199.628906 C 106.691406 198.839844 105.71875 198.085938 104.71875 197.378906 C 103.71875 196.667969 102.6875 196.003906 101.628906 195.382812 C 100.570312 194.757812 99.488281 194.183594 98.382812 193.652344 C 97.277344 193.121094 96.148438 192.640625 95 192.203125 C 93.855469 191.769531 92.691406 191.382812 91.511719 191.046875 C 90.332031 190.710938 89.136719 190.421875 87.933594 190.1875 C 86.730469 189.953125 85.515625 189.765625 84.296875 189.632812 C 72.472656 188.335938 57.207031 187.5 37.5 187.5 C 57.207031 187.5 72.472656 186.664062 84.296875 185.367188 C 85.515625 185.234375 86.730469 185.050781 87.933594 184.8125 C 89.136719 184.578125 90.332031 184.292969 91.511719 183.953125 C 92.691406 183.617188 93.855469 183.230469 95 182.796875 C 96.148438 182.363281 97.277344 181.878906 98.382812 181.347656 C 99.488281 180.816406 100.570312 180.242188 101.628906 179.621094 C 102.6875 178.996094 103.71875 178.332031 104.71875 177.621094 C 105.71875 176.914062 106.691406 176.164062 107.628906 175.371094 C 108.566406 174.578125 109.46875 173.75 110.335938 172.882812 C 111.203125 172.015625 112.035156 171.109375 112.824219 170.171875 C 113.617188 169.234375 114.367188 168.265625 115.078125 167.265625 C 115.785156 166.261719 116.453125 165.234375 117.074219 164.175781 C 117.695312 163.117188 118.273438 162.035156 118.804688 160.929688 C 119.332031 159.820312 119.816406 158.695312 120.253906 157.546875 C 120.6875 156.398438 121.074219 155.234375 121.410156 154.054688 C 121.746094 152.875 122.03125 151.683594 122.269531 150.476562 C 122.503906 149.273438 122.6875 148.0625 122.820312 146.84375 C 124.117188 135.015625 124.957031 119.75 124.957031 100.046875 C 124.957031 119.75 125.792969 135.015625 127.089844 146.84375 Z M 127.089844 146.84375 " fill-opacity="1" fill-rule="nonzero"/></g><g fill="#ffffff" fill-opacity="1"><g transform="translate(213.492177, 200.624987)"><g><path d="M 10.921875 0.359375 C 9.347656 0.359375 7.9375 0.144531 6.6875 -0.28125 C 5.4375 -0.707031 4.394531 -1.269531 3.5625 -1.96875 C 2.738281 -2.664062 2.117188 -3.425781 1.703125 -4.25 L 3.3125 -6.203125 L 3.75 -6.203125 C 5.289062 -3.597656 7.679688 -2.296875 10.921875 -2.296875 C 12.796875 -2.296875 14.191406 -2.6875 15.109375 -3.46875 C 16.023438 -4.257812 16.484375 -5.351562 16.484375 -6.75 C 16.484375 -7.570312 16.332031 -8.265625 16.03125 -8.828125 C 15.738281 -9.398438 15.242188 -9.890625 14.546875 -10.296875 C 13.847656 -10.703125 12.898438 -11.050781 11.703125 -11.34375 L 8.78125 -12.0625 C 6.601562 -12.59375 5 -13.425781 3.96875 -14.5625 C 2.9375 -15.707031 2.421875 -17.160156 2.421875 -18.921875 C 2.421875 -20.160156 2.738281 -21.265625 3.375 -22.234375 C 4.019531 -23.210938 4.957031 -23.972656 6.1875 -24.515625 C 7.414062 -25.066406 8.882812 -25.34375 10.59375 -25.34375 C 12.476562 -25.34375 14.066406 -25.078125 15.359375 -24.546875 C 16.648438 -24.015625 17.679688 -23.222656 18.453125 -22.171875 L 17.015625 -20.234375 L 16.59375 -20.234375 C 15.875 -21.109375 15.023438 -21.75 14.046875 -22.15625 C 13.066406 -22.570312 11.914062 -22.78125 10.59375 -22.78125 C 8.863281 -22.78125 7.554688 -22.441406 6.671875 -21.765625 C 5.785156 -21.097656 5.34375 -20.171875 5.34375 -18.984375 C 5.34375 -17.859375 5.664062 -16.960938 6.3125 -16.296875 C 6.96875 -15.628906 8.066406 -15.113281 9.609375 -14.75 L 12.59375 -14.03125 C 15.019531 -13.457031 16.773438 -12.582031 17.859375 -11.40625 C 18.953125 -10.226562 19.5 -8.722656 19.5 -6.890625 C 19.5 -5.472656 19.179688 -4.21875 18.546875 -3.125 C 17.921875 -2.039062 16.960938 -1.1875 15.671875 -0.5625 C 14.378906 0.0507812 12.796875 0.359375 10.921875 0.359375 Z M 10.921875 0.359375 "/></g></g></g><g fill="#ffffff" fill-opacity="1"><g transform="translate(234.90097, 200.624987)"><g><path d="M 10.8125 0.359375 C 9.039062 0.359375 7.492188 -0.015625 6.171875 -0.765625 C 4.859375 -1.515625 3.84375 -2.625 3.125 -4.09375 C 2.414062 -5.5625 2.0625 -7.335938 2.0625 -9.421875 C 2.0625 -11.503906 2.414062 -13.28125 3.125 -14.75 C 3.84375 -16.21875 4.859375 -17.328125 6.171875 -18.078125 C 7.492188 -18.828125 9.039062 -19.203125 10.8125 -19.203125 C 12.59375 -19.203125 14.140625 -18.828125 15.453125 -18.078125 C 16.773438 -17.328125 17.789062 -16.21875 18.5 -14.75 C 19.207031 -13.28125 19.5625 -11.503906 19.5625 -9.421875 C 19.5625 -7.335938 19.207031 -5.5625 18.5 -4.09375 C 17.789062 -2.625 16.773438 -1.515625 15.453125 -0.765625 C 14.140625 -0.015625 12.59375 0.359375 10.8125 0.359375 Z M 10.8125 -2.140625 C 12.695312 -2.140625 14.132812 -2.726562 15.125 -3.90625 C 16.125 -5.09375 16.625 -6.929688 16.625 -9.421875 C 16.625 -11.910156 16.125 -13.75 15.125 -14.9375 C 14.132812 -16.125 12.695312 -16.71875 10.8125 -16.71875 C 8.9375 -16.71875 7.492188 -16.117188 6.484375 -14.921875 C 5.484375 -13.734375 4.984375 -11.898438 4.984375 -9.421875 C 4.984375 -6.929688 5.484375 -5.09375 6.484375 -3.90625 C 7.492188 -2.726562 8.9375 -2.140625 10.8125 -2.140625 Z M 10.8125 -2.140625 "/></g></g></g><g fill="#ffffff" fill-opacity="1"><g transform="translate(256.531881, 200.624987)"><g><path d="M 7.5 0.359375 C 6.164062 0.359375 5.117188 -0.0195312 4.359375 -0.78125 C 3.597656 -1.539062 3.21875 -2.671875 3.21875 -4.171875 L 3.21875 -26.421875 L 6 -26.421875 L 6 -4.359375 C 6 -3.566406 6.148438 -3 6.453125 -2.65625 C 6.753906 -2.3125 7.222656 -2.140625 7.859375 -2.140625 C 8.242188 -2.140625 8.640625 -2.203125 9.046875 -2.328125 L 9.28125 -2.25 L 9.609375 -0.0625 C 9.398438 0.0703125 9.101562 0.175781 8.71875 0.25 C 8.34375 0.320312 7.9375 0.359375 7.5 0.359375 Z M 7.5 0.359375 "/></g></g></g><g fill="#ffffff" fill-opacity="1"><g transform="translate(266.783498, 200.624987)"><g><path d="M 10.8125 0.359375 C 9.15625 0.359375 7.664062 -0.0195312 6.34375 -0.78125 C 5.019531 -1.539062 3.972656 -2.65625 3.203125 -4.125 C 2.441406 -5.601562 2.0625 -7.367188 2.0625 -9.421875 C 2.0625 -11.484375 2.441406 -13.25 3.203125 -14.71875 C 3.972656 -16.195312 5.019531 -17.3125 6.34375 -18.0625 C 7.664062 -18.820312 9.15625 -19.203125 10.8125 -19.203125 C 12.8125 -19.203125 14.398438 -18.828125 15.578125 -18.078125 C 16.753906 -17.328125 17.601562 -16.328125 18.125 -15.078125 L 16.234375 -13.703125 L 15.890625 -13.703125 C 15.378906 -14.742188 14.722656 -15.503906 13.921875 -15.984375 C 13.117188 -16.472656 12.082031 -16.71875 10.8125 -16.71875 C 9.65625 -16.71875 8.632812 -16.441406 7.75 -15.890625 C 6.875 -15.347656 6.191406 -14.53125 5.703125 -13.4375 C 5.222656 -12.34375 4.984375 -11.003906 4.984375 -9.421875 C 4.984375 -7.847656 5.226562 -6.515625 5.71875 -5.421875 C 6.207031 -4.335938 6.890625 -3.519531 7.765625 -2.96875 C 8.640625 -2.414062 9.65625 -2.140625 10.8125 -2.140625 C 12.125 -2.140625 13.207031 -2.429688 14.0625 -3.015625 C 14.925781 -3.609375 15.601562 -4.546875 16.09375 -5.828125 L 16.453125 -5.828125 L 18.28125 -4.75 C 17.789062 -3.164062 16.914062 -1.914062 15.65625 -1 C 14.40625 -0.09375 12.789062 0.359375 10.8125 0.359375 Z M 10.8125 0.359375 "/></g></g></g><g fill="#ffffff" fill-opacity="1"><g transform="translate(286.210312, 200.624987)"><g><path d="M 7.78125 0.359375 C 5.914062 0.359375 4.460938 -0.125 3.421875 -1.09375 C 2.378906 -2.0625 1.859375 -3.445312 1.859375 -5.25 C 1.859375 -6.363281 2.085938 -7.304688 2.546875 -8.078125 C 3.015625 -8.847656 3.734375 -9.472656 4.703125 -9.953125 C 5.671875 -10.441406 6.9375 -10.816406 8.5 -11.078125 C 9.863281 -11.304688 10.898438 -11.5625 11.609375 -11.84375 C 12.328125 -12.125 12.804688 -12.441406 13.046875 -12.796875 C 13.296875 -13.148438 13.421875 -13.597656 13.421875 -14.140625 C 13.421875 -14.992188 13.125 -15.644531 12.53125 -16.09375 C 11.945312 -16.550781 11.003906 -16.78125 9.703125 -16.78125 C 8.484375 -16.78125 7.4375 -16.539062 6.5625 -16.0625 C 5.695312 -15.59375 4.898438 -14.894531 4.171875 -13.96875 L 3.828125 -13.96875 L 2.46875 -15.890625 C 3.257812 -16.910156 4.269531 -17.71875 5.5 -18.3125 C 6.726562 -18.90625 8.128906 -19.203125 9.703125 -19.203125 C 11.929688 -19.203125 13.570312 -18.710938 14.625 -17.734375 C 15.675781 -16.765625 16.203125 -15.421875 16.203125 -13.703125 L 16.203125 -3.703125 C 16.203125 -2.660156 16.644531 -2.140625 17.53125 -2.140625 C 17.832031 -2.140625 18.117188 -2.191406 18.390625 -2.296875 L 18.625 -2.21875 L 18.953125 -0.296875 C 18.742188 -0.148438 18.472656 -0.0390625 18.140625 0.03125 C 17.804688 0.101562 17.460938 0.140625 17.109375 0.140625 C 16.066406 0.140625 15.28125 -0.0859375 14.75 -0.546875 C 14.226562 -1.003906 13.890625 -1.675781 13.734375 -2.5625 L 13.375 -2.59375 C 12.84375 -1.601562 12.117188 -0.863281 11.203125 -0.375 C 10.296875 0.113281 9.15625 0.359375 7.78125 0.359375 Z M 8.390625 -1.859375 C 9.441406 -1.859375 10.347656 -2.097656 11.109375 -2.578125 C 11.878906 -3.066406 12.46875 -3.75 12.875 -4.625 C 13.289062 -5.507812 13.5 -6.523438 13.5 -7.671875 L 13.5 -10.0625 L 13.171875 -10.140625 C 12.753906 -9.835938 12.242188 -9.585938 11.640625 -9.390625 C 11.035156 -9.191406 10.191406 -9.015625 9.109375 -8.859375 C 8.015625 -8.703125 7.144531 -8.46875 6.5 -8.15625 C 5.851562 -7.851562 5.394531 -7.46875 5.125 -7 C 4.851562 -6.53125 4.71875 -5.945312 4.71875 -5.25 C 4.71875 -4.144531 5.039062 -3.300781 5.6875 -2.71875 C 6.34375 -2.144531 7.242188 -1.859375 8.390625 -1.859375 Z M 8.390625 -1.859375 "/></g></g></g><g fill="#ffffff" fill-opacity="1"><g transform="translate(305.70547, 200.624987)"><g><path d="M 8.59375 0.359375 C 7.40625 0.359375 6.304688 0.203125 5.296875 -0.109375 C 4.296875 -0.421875 3.445312 -0.847656 2.75 -1.390625 C 2.050781 -1.941406 1.5625 -2.5625 1.28125 -3.25 L 2.921875 -4.953125 L 3.28125 -4.953125 C 3.894531 -4.023438 4.632812 -3.320312 5.5 -2.84375 C 6.363281 -2.375 7.394531 -2.140625 8.59375 -2.140625 C 9.988281 -2.140625 11.046875 -2.410156 11.765625 -2.953125 C 12.492188 -3.492188 12.859375 -4.25 12.859375 -5.21875 C 12.859375 -5.957031 12.632812 -6.566406 12.1875 -7.046875 C 11.75 -7.535156 11.039062 -7.898438 10.0625 -8.140625 L 6.890625 -8.921875 C 5.191406 -9.328125 3.953125 -9.972656 3.171875 -10.859375 C 2.390625 -11.753906 2 -12.859375 2 -14.171875 C 2 -15.191406 2.257812 -16.082031 2.78125 -16.84375 C 3.3125 -17.601562 4.066406 -18.1875 5.046875 -18.59375 C 6.035156 -19 7.207031 -19.203125 8.5625 -19.203125 C 10.289062 -19.203125 11.65625 -18.957031 12.65625 -18.46875 C 13.65625 -17.988281 14.429688 -17.316406 14.984375 -16.453125 L 13.421875 -14.921875 L 13.078125 -14.921875 C 12.472656 -15.617188 11.8125 -16.117188 11.09375 -16.421875 C 10.382812 -16.734375 9.539062 -16.890625 8.5625 -16.890625 C 7.320312 -16.890625 6.367188 -16.664062 5.703125 -16.21875 C 5.046875 -15.769531 4.71875 -15.125 4.71875 -14.28125 C 4.71875 -13.519531 4.953125 -12.90625 5.421875 -12.4375 C 5.890625 -11.96875 6.703125 -11.59375 7.859375 -11.3125 L 10.984375 -10.5625 C 12.628906 -10.175781 13.816406 -9.53125 14.546875 -8.625 C 15.273438 -7.726562 15.640625 -6.601562 15.640625 -5.25 C 15.640625 -4.144531 15.375 -3.171875 14.84375 -2.328125 C 14.320312 -1.484375 13.53125 -0.820312 12.46875 -0.34375 C 11.414062 0.125 10.125 0.359375 8.59375 0.359375 Z M 8.59375 0.359375 "/></g></g></g><g fill="#ffffff" fill-opacity="1"><g transform="translate(323.133219, 200.624987)"><g><path d="M 12.75 -2.984375 L 13.640625 -0.984375 C 13.191406 -0.546875 12.601562 -0.210938 11.875 0.015625 C 11.15625 0.242188 10.375 0.359375 9.53125 0.359375 C 5.9375 0.359375 4.140625 -1.460938 4.140625 -5.109375 L 4.140625 -16.578125 L 0.859375 -16.578125 L 0.859375 -18.875 L 4.140625 -18.875 L 4.140625 -22.84375 L 6.921875 -23.3125 L 6.921875 -18.875 L 12.984375 -18.875 L 12.984375 -16.578125 L 6.921875 -16.578125 L 6.921875 -5.390625 C 6.921875 -3.222656 7.859375 -2.140625 9.734375 -2.140625 C 10.765625 -2.140625 11.648438 -2.421875 12.390625 -2.984375 Z M 12.75 -2.984375 "/></g></g></g></svg>